<svg width="110" height="110" viewBox="0 0 110 110" fill="none" xmlns="http://www.w3.org/2000/svg">
<rect width="110" height="110" fill="#4C33CC"/>
<path d="M38.7971 41H56.8755L56.1884 44.3512H47.3854L45.7107 52.4205H53.0537L52.3666 55.8157H45.0236L42.2754 69H33L38.7971 41Z" fill="white"/>
<path d="M59.7971 41H77.8755L77.1884 44.3512H68.3854L66.7107 52.4205H74.0537L73.3666 55.8157H66.0236L63.2754 69H54L59.7971 41Z" fill="#FFC042"/>
<line y1="9.125" x2="110" y2="9.125" stroke="white" stroke-opacity="0.1"/>
<line y1="19.2083" x2="110" y2="19.2083" stroke="white" stroke-opacity="0.1"/>
<line y1="29.2917" x2="110" y2="29.2917" stroke="white" stroke-opacity="0.1"/>
<line y1="39.375" x2="110" y2="39.375" stroke="white" stroke-opacity="0.1"/>
<line y1="49.4583" x2="110" y2="49.4583" stroke="white" stroke-opacity="0.1"/>
<line y1="59.5417" x2="110" y2="59.5417" stroke="white" stroke-opacity="0.1"/>
<line y1="69.625" x2="110" y2="69.625" stroke="white" stroke-opacity="0.1"/>
<line y1="79.7083" x2="110" y2="79.7083" stroke="white" stroke-opacity="0.1"/>
<line y1="89.7917" x2="110" y2="89.7917" stroke="white" stroke-opacity="0.1"/>
<line y1="99.875" x2="110" y2="99.875" stroke="white" stroke-opacity="0.1"/>
<line x1="9.125" y1="110" x2="9.12499" y2="2.00344e-08" stroke="white" stroke-opacity="0.1"/>
<line x1="19.2083" y1="110" x2="19.2083" y2="2.00344e-08" stroke="white" stroke-opacity="0.1"/>
<line x1="29.2917" y1="110" x2="29.2917" y2="2.00344e-08" stroke="white" stroke-opacity="0.1"/>
<line x1="39.375" y1="110" x2="39.375" y2="2.00344e-08" stroke="white" stroke-opacity="0.1"/>
<line x1="49.4583" y1="110" x2="49.4583" y2="2.00344e-08" stroke="white" stroke-opacity="0.1"/>
<line x1="59.5417" y1="110" x2="59.5417" y2="2.00344e-08" stroke="white" stroke-opacity="0.1"/>
<line x1="69.625" y1="110" x2="69.625" y2="2.00344e-08" stroke="white" stroke-opacity="0.1"/>
<line x1="79.7083" y1="110" x2="79.7083" y2="2.00344e-08" stroke="white" stroke-opacity="0.1"/>
<line x1="89.7917" y1="110" x2="89.7917" y2="2.00344e-08" stroke="white" stroke-opacity="0.1"/>
<line x1="99.875" y1="110" x2="99.875" y2="2.00344e-08" stroke="white" stroke-opacity="0.1"/>
<circle cx="55" cy="55.4583" r="32.5" stroke="black" stroke-opacity="0.1"/>
</svg>
